<?xml version="1.0" encoding="UTF-8" standalone="no"?>
<!-- Created with Inkscape (http://www.inkscape.org/) -->

<svg
   width="100"
   height="100"
   viewBox="0 0 26.458 26.458"
   version="1.1"
   id="svg5"
   xmlns="http://www.w3.org/2000/svg"
   xmlns:svg="http://www.w3.org/2000/svg">
  <defs
     id="defs2" />
  <g
     id="layer1"
     transform="matrix(0.25925599,0,0,0.26041339,-4.3312725,-4.4096667)">
    <g
       id="g7189"
       transform="matrix(0.74999998,0,0,0.75229667,24.870833,16.933333)">
      <g
         id="g3502"
         transform="translate(4.2333327)">
        <path
           id="path31"
           style="fill:#225cb6;fill-opacity:1;fill-rule:evenodd;stroke-width:0.24569"
           d="m 42.333334,50.799999 c 0,-18.704043 15.162624,-33.866667 33.866663,-33.866666 18.704047,-1e-6 33.866673,15.162623 33.866673,33.866666" />
        <path
           id="path31-3"
           style="fill:#f9d649;fill-opacity:1;fill-rule:evenodd;stroke-width:0.245691"
           d="m 110.06667,50.799999 c 0,18.704037 -15.162623,33.866666 -33.866666,33.866666 -18.704051,0 -33.86667,-15.16263 -33.86667,-33.866666" />
      </g>
      <g
         id="g6827"
         transform="translate(-110.84956,-0.92343226)">
        <path
           id="path3464"
           style="fill:#1e1a17;fill-opacity:1;stroke-width:0.862896"
           d="m 470.42578,258.70898 h -51.4668 c -0.002,10.7996 0.43077,21.60587 1.29493,28.91407 8.8673,74.99059 49.5144,141.88196 111.3164,183.18554 34.26161,22.89786 71.973,36.87462 113.47071,42.05469 6.75386,0.8431 17.75667,1.1511 29.2207,1.04297 v -54.22461 c -8.30347,4e-5 -16.72703,-0.2676 -21.88477,-0.80664 -45.81577,-4.78915 -90.35415,-26.06952 -123.48047,-58.99805 -11.70716,-11.6372 -17.26732,-18.40643 -26,-31.65625 -16.59908,-25.18534 -26.75172,-52.48245 -31.40039,-84.42578 -0.79138,-5.438 -1.13697,-15.15455 -1.07031,-25.08594 z"
           transform="scale(0.26458333)" />
        <path
           id="path4059"
           style="fill:#bb261a;fill-opacity:1;stroke-width:0.862896"
           d="m 674.26172,3.4902344 c -32.47026,-0.028267 -64.67345,6.1420002 -95.27734,18.4160156 -21.40706,8.585527 -41.95034,20.400992 -62.08204,35.705078 -10.99449,8.35804 -33.47526,30.644093 -42.75586,42.386719 -29.83324,37.747623 -48.24097,82.126303 -53.89257,129.921873 -0.86082,7.27996 -1.29326,18.0312 -1.29493,28.78906 h 51.4668 c 0.0688,-10.25661 0.57741,-20.74253 1.49024,-26.99218 8.55367,-58.5628 40.75219,-108.69082 90.61523,-141.076175 32.86054,-21.342471 72.07733,-32.626539 111.73047,-32.664063 z"
           transform="scale(0.26458333)" />
      </g>
    </g>
  </g>
</svg>
